<?xml version="1.0" standalone="no"?>
<!DOCTYPE svg PUBLIC "-//W3C//DTD SVG 20010904//EN"
 "http://www.w3.org/TR/2001/REC-SVG-20010904/DTD/svg10.dtd">
<svg version="1.0" xmlns="http://www.w3.org/2000/svg"
 width="1024.000000pt" height="1024.000000pt" viewBox="0 0 1024.000000 1024.000000"
 preserveAspectRatio="xMidYMid meet">

<g transform="translate(0.000000,1024.000000) scale(0.100000,-0.100000)"
fill="#000000" stroke="none">
<path d="M4965 8979 c-246 -10 -550 -61 -800 -135 -472 -139 -885 -364 -1238
-673 -197 -173 -311 -299 -487 -536 -348 -469 -578 -1023 -661 -1591 -37 -259
-41 -389 -36 -1229 4 -880 4 -871 68 -1195 111 -567 350 -1091 699 -1536 107
-136 375 -407 500 -506 472 -372 1021 -611 1605 -699 198 -30 646 -37 865 -15
606 64 1188 288 1668 643 279 206 566 513 765 818 302 464 471 931 564 1560
16 108 18 210 18 1045 0 998 0 1006 -55 1280 -75 373 -225 771 -420 1111 -347
607 -801 1027 -1445 1339 -364 176 -829 297 -1220 316 -181 9 -228 9 -390 3z
m585 -74 c644 -87 1207 -330 1695 -730 111 -91 327 -310 421 -425 386 -474
656 -1089 756 -1715 21 -135 22 -170 26 -1015 4 -933 1 -1002 -45 -1275 -199
-1187 -896 -2118 -1918 -2565 -289 -126 -587 -208 -925 -255 -156 -22 -583
-31 -736 -16 -301 31 -540 80 -774 159 -509 173 -1002 490 -1341 863 -237 261
-400 503 -555 824 -162 336 -248 602 -308 955 -50 289 -51 322 -51 1210 0 909
3 970 56 1250 122 635 404 1208 828 1679 163 181 280 290 454 423 490 373
1082 590 1777 652 100 9 530 -4 640 -19z"/>
<path d="M5365 8581 c-109 -27 -184 -130 -171 -234 8 -60 18 -81 60 -125 42
-46 75 -61 143 -68 70 -7 132 8 161 39 l22 24 -20 18 c-19 18 -22 18 -56 2
-46 -23 -125 -22 -163 1 -75 46 -98 120 -61 197 44 92 171 114 246 44 23 -21
49 -17 59 9 9 25 -44 68 -106 86 -57 17 -68 18 -114 7z"/>
<path d="M4633 8553 c-13 -2 -23 -8 -23 -12 0 -4 13 -86 30 -182 16 -96 30
-186 30 -201 0 -15 4 -29 9 -33 5 -3 54 2 108 10 159 25 153 23 153 56 0 34
-1 34 -118 15 -61 -10 -85 -10 -88 -2 -2 6 -16 87 -32 180 -15 93 -32 170 -37
171 -6 1 -20 0 -32 -2z"/>
<path d="M5782 8508 c-87 -32 -139 -125 -128 -226 8 -67 24 -99 75 -145 159
-143 401 3 351 213 -16 68 -57 120 -116 149 -62 31 -116 34 -182 9z m151 -62
c60 -25 100 -123 77 -191 -48 -146 -239 -147 -280 0 -38 135 78 244 203 191z"/>
<path d="M4310 8473 c-69 -19 -126 -36 -128 -38 -5 -4 90 -382 99 -397 8 -13
19 -12 199 34 90 23 95 26 92 49 -2 13 -7 27 -10 31 -4 4 -50 -4 -102 -17 -52
-14 -102 -25 -110 -25 -10 0 -22 19 -32 52 -9 29 -14 56 -12 59 2 3 38 14 81
24 100 23 113 30 106 55 -8 32 -18 33 -98 11 -108 -30 -112 -29 -123 26 -6 26
-9 50 -7 54 3 3 47 16 98 29 116 27 120 30 111 63 -8 33 -9 33 -164 -10z"/>
<path d="M6200 8204 c-50 -103 -89 -188 -88 -189 10 -8 48 -25 56 -25 4 0 19
25 31 55 13 30 27 55 32 55 4 0 33 -11 62 -24 53 -23 55 -25 61 -72 15 -109
17 -112 46 -123 21 -7 30 -6 33 2 3 11 -6 83 -18 139 -6 23 -3 27 27 33 71 16
108 63 108 136 0 62 -34 100 -133 147 -137 67 -114 81 -217 -134z m182 81 c65
-31 81 -44 97 -72 22 -42 -26 -103 -80 -103 -25 0 -139 49 -139 60 0 13 59
140 64 140 3 0 29 -11 58 -25z"/>
<path d="M3647 8202 c-15 -17 -15 -30 3 -175 11 -87 25 -186 31 -222 l12 -64
30 15 c30 16 31 25 11 110 -5 17 8 26 88 61 l93 40 33 -28 c18 -16 37 -29 43
-29 17 0 49 20 49 30 0 25 -325 280 -357 280 -11 0 -27 -8 -36 -18z m138 -126
c53 -41 72 -62 66 -70 -11 -13 -120 -60 -125 -55 -9 9 -32 189 -24 187 4 -2
42 -30 83 -62z"/>
<path d="M6770 8043 c-311 -206 -288 -188 -265 -213 24 -26 27 -26 82 14 l47
34 84 -56 83 -56 -6 -57 c-6 -52 -5 -58 16 -73 13 -9 27 -12 31 -8 4 4 23 103
43 221 34 202 35 214 19 232 -9 10 -24 19 -33 19 -9 -1 -54 -26 -101 -57z m75
-70 c-3 -21 -11 -61 -18 -90 l-12 -52 -55 35 c-30 19 -55 39 -55 44 0 10 123
98 138 99 5 1 6 -16 2 -36z"/>
<path d="M3304 8001 c-22 -10 -58 -34 -79 -52 -118 -104 -94 -288 49 -361 31
-16 54 -19 112 -16 61 3 79 8 115 33 23 17 55 53 71 82 l30 52 -26 7 c-21 5
-33 -3 -78 -49 -61 -61 -110 -78 -172 -57 -71 23 -130 120 -111 182 19 62 88
120 157 132 37 7 65 36 53 56 -10 16 -77 11 -121 -9z"/>
<path d="M7143 7895 c-7 -8 -13 -18 -13 -23 0 -5 33 -47 74 -93 41 -46 74 -85
73 -86 -6 -5 -192 -33 -257 -38 -110 -9 -120 -12 -120 -38 0 -28 207 -240 227
-233 36 14 25 39 -53 117 -43 43 -76 80 -73 83 2 2 84 15 183 29 98 14 183 30
189 36 7 7 7 17 1 30 -10 20 -205 231 -214 231 -3 -1 -11 -7 -17 -15z"/>
<path d="M4990 7764 c-113 -9 -289 -36 -405 -64 -632 -151 -1197 -585 -1470
-1131 -125 -248 -195 -478 -232 -756 -16 -123 -18 -223 -18 -923 0 -771 0
-788 23 -935 57 -368 168 -666 349 -936 350 -521 911 -867 1569 -969 159 -24
447 -27 611 -5 429 56 837 229 1163 492 384 310 657 769 760 1280 46 230 52
387 47 1193 -4 770 -5 777 -63 1038 -119 539 -461 1039 -914 1336 -363 239
-770 367 -1200 379 -91 2 -190 3 -220 1z m530 -83 c470 -88 828 -267 1151
-573 349 -332 568 -766 646 -1283 16 -108 18 -200 18 -945 0 -819 0 -826 -23
-953 -45 -249 -104 -436 -202 -635 -108 -222 -218 -379 -384 -550 -176 -182
-356 -312 -591 -427 -218 -107 -421 -172 -655 -212 -150 -25 -574 -25 -710 0
-362 68 -660 190 -938 384 -432 302 -721 724 -846 1235 -69 278 -71 312 -71
1178 0 695 2 789 18 915 51 383 187 727 405 1018 91 122 285 319 399 405 342
259 732 415 1148 462 137 15 514 4 635 -19z"/>
<path d="M4103 6803 c-21 -8 -15 -32 10 -37 12 -3 72 -14 132 -25 61 -12 128
-26 150 -32 l40 -12 -72 -22 c-83 -26 -123 -49 -123 -70 0 -20 8 -19 122 16
120 38 161 36 243 -11 l57 -33 -49 -17 c-124 -44 -211 -111 -174 -135 5 -3 34
9 63 26 64 38 169 79 203 79 33 0 152 -99 134 -111 -8 -5 -26 -9 -40 -9 -35 0
-169 -68 -169 -85 0 -21 17 -27 41 -15 48 26 156 60 190 60 32 0 42 -7 84 -57
46 -56 46 -58 24 -61 -52 -6 -129 -35 -129 -48 0 -17 28 -18 99 -4 65 12 93 1
115 -45 18 -36 25 -119 13 -132 -4 -3 -19 6 -34 21 -34 35 -163 115 -211 132
-20 7 -59 22 -86 33 -71 31 -226 46 -321 32 -209 -31 -428 -163 -540 -326 -32
-45 -36 -57 -25 -70 19 -23 27 -19 63 38 33 51 174 193 184 184 2 -3 -9 -51
-26 -108 -35 -123 -38 -140 -28 -156 21 -33 32 -11 77 152 18 66 42 130 53
142 21 23 92 57 146 68 30 7 33 5 26 -11 -4 -11 -23 -90 -42 -177 -26 -115
-33 -161 -25 -169 19 -19 38 7 51 69 25 116 62 264 71 288 9 23 14 25 80 25
64 0 70 -2 62 -17 -10 -18 -55 -207 -66 -274 -5 -29 -3 -38 10 -43 9 -4 19 -4
22 -2 2 3 22 76 42 161 21 86 41 160 46 165 12 11 105 -7 121 -23 10 -10 6
-35 -23 -127 -48 -151 -50 -165 -28 -174 9 -4 20 -3 24 1 4 4 24 68 45 141 21
72 42 132 47 132 10 0 82 -36 114 -57 l22 -14 -29 -75 c-29 -75 -37 -124 -21
-124 12 0 42 34 42 47 0 6 11 36 25 67 28 63 24 63 93 4 26 -22 32 -34 32 -67
0 -37 -2 -40 -37 -52 -109 -35 -290 -159 -359 -245 -85 -108 -170 -258 -219
-388 -53 -140 -112 -435 -94 -469 19 -35 33 -10 50 94 24 138 50 249 60 249 4
0 12 -31 19 -69 17 -100 35 -156 51 -156 19 0 17 43 -10 195 -12 69 -20 138
-17 153 8 37 85 202 91 195 3 -3 12 -56 20 -118 14 -117 21 -135 45 -120 12 7
12 25 2 123 -17 165 -16 199 10 233 29 39 91 104 98 104 4 0 3 -28 -1 -62 -13
-98 -13 -168 0 -181 6 -6 14 -7 18 -3 4 4 15 73 24 153 19 161 16 155 103 204
l39 22 -9 -64 c-12 -93 -11 -221 2 -226 18 -6 23 19 35 151 15 157 19 170 53
174 23 3 26 1 22 -20 -7 -31 -46 -551 -76 -1018 -6 -91 -13 -174 -15 -186 -4
-17 -19 -23 -92 -38 -187 -36 -402 -126 -565 -237 -112 -77 -295 -256 -367
-359 -79 -112 -133 -209 -127 -226 5 -12 188 -14 1348 -12 1197 3 1343 5 1346
18 4 21 -89 171 -167 270 -212 269 -571 486 -904 547 -94 17 -97 19 -97 44 0
15 -11 193 -25 396 -14 202 -30 445 -35 538 -6 94 -13 198 -16 233 -3 34 -4
62 0 62 3 0 16 -5 29 -11 22 -10 24 -20 40 -167 17 -156 24 -181 47 -167 13 8
11 74 -6 234 -7 63 -7 63 16 56 37 -12 108 -68 119 -95 5 -14 13 -78 16 -143
5 -90 11 -120 22 -124 26 -10 30 10 23 112 -3 55 -4 103 0 107 6 8 61 -53 95
-105 16 -25 17 -44 13 -178 -6 -144 -1 -176 23 -152 6 6 16 61 22 124 l12 114
26 -50 c67 -130 72 -205 29 -385 -20 -80 -20 -85 -3 -97 23 -18 28 -8 54 105
11 50 22 92 25 92 8 0 35 -110 52 -215 16 -96 20 -110 37 -110 18 0 20 6 17
55 -6 94 -52 290 -97 411 -106 289 -279 493 -507 603 -87 41 -108 55 -108 72
0 25 84 108 103 101 7 -2 26 -41 43 -86 29 -79 48 -106 66 -95 10 6 3 38 -28
132 -13 40 -24 79 -24 86 0 15 105 86 127 86 7 0 17 -19 23 -42 7 -24 22 -77
35 -118 13 -41 26 -85 30 -97 7 -26 34 -38 41 -18 6 15 -12 95 -50 217 -27 86
-26 89 39 107 71 20 69 22 99 -111 46 -203 55 -224 80 -198 15 16 8 56 -43
252 l-18 66 31 4 c61 6 99 -5 107 -32 21 -74 53 -194 70 -260 22 -84 31 -99
53 -81 10 9 12 20 6 44 -46 183 -74 284 -82 294 -25 32 55 13 153 -37 41 -21
47 -36 105 -247 13 -49 21 -63 35 -63 24 0 24 -1 -6 132 -14 61 -25 113 -25
115 0 2 15 -6 33 -18 48 -35 144 -137 157 -170 13 -31 44 -39 53 -14 8 19 -62
123 -114 170 -139 126 -386 225 -559 225 -74 0 -204 -32 -273 -67 -70 -35
-208 -127 -236 -157 -14 -14 -28 -26 -33 -26 -17 0 -8 102 14 152 l21 50 90
-4 c128 -4 126 31 -3 48 -27 4 -50 9 -50 11 0 3 21 30 47 60 l47 55 56 -6 c55
-6 163 -36 200 -56 31 -17 40 18 11 41 -24 19 -130 55 -194 64 -34 5 -37 8
-25 22 17 20 108 88 128 95 18 6 133 -33 212 -73 80 -40 118 -38 86 4 -15 18
-169 97 -192 97 -20 0 -46 11 -46 19 0 4 35 24 79 45 l79 39 117 -37 c109 -35
145 -39 145 -18 0 5 -6 14 -12 19 -22 17 -137 53 -170 53 -20 0 -28 4 -22 9
14 15 194 59 280 70 77 9 102 20 90 40 -17 26 -213 1 -346 -44 -108 -36 -244
-107 -324 -167 -147 -110 -291 -277 -362 -418 -23 -46 -29 -51 -51 -45 -31 7
-45 21 -67 62 -31 62 -168 232 -239 300 -81 76 -193 156 -282 201 -155 78
-410 141 -472 115z m1076 -753 c15 -7 19 -28 25 -112 4 -57 9 -135 12 -175 l6
-71 -62 -4 c-34 -1 -63 -1 -65 2 -3 5 24 311 31 348 5 23 24 28 53 12z m57
-583 c6 -95 9 -175 7 -179 -2 -5 -31 -8 -64 -8 -51 0 -59 -3 -59 -19 0 -21 26
-31 87 -31 l41 0 6 -72 c7 -86 13 -187 21 -318 3 -52 10 -158 15 -235 5 -77
12 -184 14 -237 l5 -98 -100 0 c-81 0 -101 -3 -106 -15 -3 -9 -2 -19 2 -23 3
-4 52 -9 108 -12 l102 -5 7 -105 c4 -58 11 -160 15 -228 l8 -122 -195 2 c-188
3 -195 4 -193 23 0 11 15 227 33 480 17 253 34 470 36 483 4 20 10 22 80 22
59 0 76 3 81 16 9 24 -15 34 -89 34 -51 0 -68 3 -68 14 0 32 50 725 55 763 l6
42 62 3 c34 2 64 2 67 0 3 -2 10 -81 16 -175z m-300 -1314 c-15 -186 -26 -351
-26 -366 l0 -27 -510 0 c-379 0 -510 3 -510 12 0 6 30 56 67 112 173 260 450
468 758 569 89 30 238 58 243 46 2 -4 -8 -160 -22 -346z m639 306 c135 -42
321 -133 429 -210 100 -71 237 -202 308 -295 44 -57 118 -175 118 -188 0 -3
-234 -6 -519 -6 l-519 0 -6 98 c-4 53 -13 190 -21 304 -8 113 -15 236 -15 273
l0 68 63 -6 c34 -4 107 -20 162 -38z"/>
<path d="M4020 3530 c-8 -15 -8 -22 2 -25 7 -3 524 -4 1148 -3 1127 3 1135 3
1135 23 0 20 -8 20 -1137 23 -1132 2 -1137 2 -1148 -18z"/>
<path d="M4261 3321 c-24 -44 -31 -43 916 -37 679 4 898 8 904 17 24 39 34 39
-907 39 -876 0 -904 -1 -913 -19z"/>
<path d="M4482 3088 l3 -23 678 -3 677 -2 0 25 0 25 -681 0 -680 0 3 -22z"/>
<path d="M2926 7698 c-18 -25 -28 -11 134 -182 l65 -68 -75 6 c-41 3 -113 9
-160 13 -169 15 -207 7 -181 -39 12 -20 148 -148 263 -247 l37 -32 16 25 c17
25 16 26 -47 84 -34 33 -84 77 -110 98 -26 22 -47 43 -47 48 -1 5 28 6 67 2
245 -23 312 -26 332 -14 11 7 20 17 20 21 0 10 -166 185 -247 260 l-51 48 -16
-23z"/>
<path d="M7368 7490 c-124 -37 -176 -182 -111 -309 42 -81 101 -116 199 -116
64 0 77 3 115 30 78 55 108 121 95 210 -20 133 -168 224 -298 185z m159 -83
c92 -62 96 -202 8 -257 -72 -45 -141 -35 -199 30 -59 66 -58 155 2 213 53 51
126 56 189 14z"/>
<path d="M7693 7460 c-27 -11 -29 -27 -7 -58 18 -27 35 -28 64 -4 l21 17 -21
28 c-23 30 -25 30 -57 17z"/>
<path d="M2559 7258 c-14 -26 -13 -26 185 -179 123 -95 130 -99 147 -83 26 23
24 36 -10 59 -16 11 -90 66 -164 123 -74 56 -137 102 -141 102 -3 0 -11 -10
-17 -22z"/>
<path d="M2386 6971 c-36 -71 -66 -134 -66 -140 0 -5 81 -51 181 -101 145 -73
183 -89 195 -79 29 24 15 44 -51 77 -36 17 -65 36 -65 42 0 6 18 47 41 91 38
77 39 82 23 100 -9 10 -20 19 -23 19 -4 0 -27 -40 -51 -90 -24 -49 -48 -90
-52 -90 -15 0 -118 54 -118 62 0 13 70 149 92 181 20 27 20 29 2 42 -11 8 -24
15 -31 15 -6 0 -41 -58 -77 -129z"/>
<path d="M7658 6994 l-176 -87 10 -28 c5 -16 12 -29 14 -29 2 0 60 28 129 62
68 34 127 59 130 57 2 -3 -29 -83 -70 -179 -57 -136 -71 -178 -64 -193 6 -10
18 -17 27 -15 21 4 352 181 352 188 0 3 -8 15 -18 27 l-17 21 -125 -68 c-69
-37 -126 -66 -128 -65 -2 2 31 83 74 180 77 175 82 201 48 212 -5 2 -89 -36
-186 -83z"/>
<path d="M6947 2303 c-14 -17 -11 -33 36 -195 29 -105 55 -178 62 -178 27 0
34 24 22 74 -11 49 -11 49 23 78 91 78 97 81 131 69 26 -9 35 -8 56 9 l25 20
-48 21 c-117 50 -282 119 -286 119 -3 0 -12 -8 -21 -17z m133 -84 l65 -31 -25
-20 c-14 -11 -35 -28 -48 -39 -13 -11 -27 -17 -31 -14 -5 3 -15 29 -21 57 -7
29 -17 59 -23 66 -16 21 13 14 83 -19z"/>
<path d="M3260 2246 c-85 -108 -125 -121 -183 -57 -19 21 -39 47 -45 57 -8 15
-14 16 -23 7 -25 -25 23 -108 82 -138 75 -39 147 1 238 133 18 26 20 36 11 47
-7 8 -16 15 -21 15 -5 0 -31 -29 -59 -64z"/>
<path d="M3621 2196 c-14 -16 1 -31 42 -41 34 -9 36 9 5 36 -28 22 -32 23 -47
5z"/>
<path d="M3460 2062 c-63 -32 -128 -66 -143 -76 -25 -17 -27 -21 -13 -34 13
-14 19 -14 56 1 l41 16 76 -57 c74 -56 75 -58 70 -95 -4 -30 -1 -39 14 -48 28
-15 37 -5 44 49 3 26 10 67 15 92 32 163 34 179 20 194 -21 27 -60 18 -180
-42z m120 -82 c-7 -30 -14 -58 -17 -62 -4 -7 -98 56 -108 72 -3 4 25 24 62 42
79 40 83 37 63 -52z"/>
<path d="M6678 2109 c-10 -6 -18 -14 -18 -20 0 -7 167 -257 185 -277 7 -8 45
10 45 21 0 12 -152 241 -179 269 -12 13 -21 14 -33 7z"/>
<path d="M3836 1942 c-7 -23 -12 -329 -6 -335 3 -2 15 -7 26 -11 18 -5 40 9
111 71 48 43 108 95 133 116 41 35 43 38 27 54 -21 21 -42 12 -104 -48 -26
-25 -70 -65 -96 -89 l-48 -44 1 120 c2 167 2 162 -19 174 -16 8 -21 6 -25 -8z"/>
<path d="M6385 1926 c-120 -58 -117 -41 -39 -199 43 -86 74 -137 84 -137 24 0
162 67 198 95 25 20 32 33 32 61 0 40 -36 84 -69 84 -17 0 -18 5 -14 40 5 33
2 45 -17 65 -33 36 -87 33 -175 -9z m129 -32 c17 -17 20 -33 8 -50 -9 -14
-107 -64 -125 -64 -7 0 -21 15 -30 34 -19 40 -16 44 54 75 53 25 73 26 93 5z
m80 -120 c19 -18 19 -20 5 -46 -9 -17 -123 -78 -146 -78 -10 0 -46 80 -39 87
11 11 123 53 143 53 12 0 29 -7 37 -16z"/>
<path d="M5939 1860 c-14 -11 -18 -19 -11 -20 7 0 10 -4 7 -10 -3 -5 1 -10 9
-10 9 0 16 5 16 10 0 6 9 10 20 10 18 0 19 2 8 20 -16 25 -20 25 -49 0z"/>
<path d="M4265 1780 c-8 -12 -95 -280 -95 -290 0 -11 249 -86 256 -77 1 1 4
12 8 23 6 20 0 23 -61 39 -149 38 -142 33 -118 91 12 29 18 34 36 29 111 -36
153 -44 161 -32 14 23 8 37 -19 43 -16 3 -48 12 -72 20 -25 8 -53 14 -63 14
-21 0 -22 3 -6 47 7 18 19 33 28 33 8 0 54 -11 103 -24 85 -24 87 -24 97 -6
12 23 -4 34 -71 49 -24 6 -74 19 -111 30 -37 11 -70 16 -73 11z"/>
<path d="M5955 1766 c-7 -11 -16 -52 -19 -90 -4 -38 -8 -86 -11 -105 -17 -135
-16 -141 3 -141 28 0 42 20 42 61 0 41 8 46 111 68 25 6 52 13 61 16 9 4 28
-5 46 -20 16 -14 37 -23 46 -20 53 17 52 15 25 33 -14 9 -72 60 -128 112 -111
104 -152 124 -176 86z m154 -139 c1 -4 -5 -9 -11 -11 -7 -2 -37 -10 -67 -19
l-53 -16 7 67 c4 37 9 71 12 75 5 8 110 -82 112 -96z"/>
<path d="M5707 1713 c-10 -2 -31 -31 -47 -63 -16 -32 -35 -62 -41 -65 -6 -4
-33 15 -63 44 -54 53 -65 58 -97 41 -17 -10 -13 -16 51 -71 38 -34 70 -67 70
-74 0 -8 -23 -51 -51 -97 -47 -78 -49 -83 -29 -86 29 -5 53 19 91 87 17 31 33
58 35 59 1 2 30 -19 64 -47 43 -36 70 -51 91 -51 39 0 37 11 -13 53 -24 19
-58 49 -77 65 l-33 31 47 83 c26 46 50 86 52 91 4 7 -20 8 -50 0z"/>
<path d="M4680 1548 c-86 -146 -89 -153 -68 -159 23 -6 35 2 68 48 15 20 18
20 100 7 47 -7 86 -13 87 -13 2 -1 12 -18 22 -40 15 -29 27 -40 51 -43 16 -3
30 -2 30 1 0 3 -33 83 -73 176 -66 155 -75 170 -99 173 -25 3 -34 -8 -118
-150z m144 5 c14 -37 24 -68 23 -70 -4 -4 -119 15 -124 21 -6 6 59 116 68 116
4 0 19 -30 33 -67z"/>
<path d="M5183 1498 c-40 -100 -72 -183 -70 -184 1 -1 13 -4 27 -6 22 -3 27 5
58 82 19 47 52 127 73 177 22 51 39 97 39 103 0 5 -12 10 -27 10 -27 0 -31 -8
-100 -182z"/>
</g>
</svg>
